<svg version="1.1" id="Layer_1" xmlns="http://www.w3.org/2000/svg" xmlns:xlink="http://www.w3.org/1999/xlink" x="0px" y="0px"
	 width="100%" viewBox="0 0 544 416" enable-background="new 0 0 544 416" xml:space="preserve">
<path fill="#000000" opacity="1.000000" stroke="none" 
	d="
M142.962814,103.939766 
	C137.121872,106.523682 135.469208,101.971535 133.539886,98.223625 
	C116.714508,102.300255 99.997269,105.675331 82.985901,107.431000 
	C80.159813,107.722672 78.689751,109.807434 77.252068,111.844398 
	C73.314781,117.422852 69.380852,123.005348 66.130089,129.033447 
	C65.549065,130.110886 65.376907,131.670074 63.119137,131.855530 
	C65.256447,123.626572 70.567741,117.039162 73.665329,108.566597 
	C68.061966,108.781296 62.968155,109.359962 57.977745,108.281212 
	C54.504402,107.530403 52.791523,104.097282 53.709236,100.059433 
	C54.364693,97.175476 57.034012,96.978127 58.347832,97.846748 
	C64.699783,102.046349 71.539665,99.161270 78.101631,99.690170 
	C82.603035,100.052986 86.985390,98.731483 91.616531,97.370720 
	C89.729507,95.465637 86.680359,97.243141 85.026939,94.300240 
	C87.562416,90.142021 91.388451,86.683655 94.974716,83.124649 
	C109.093987,69.112732 124.695999,57.162899 144.399918,52.331203 
	C158.844833,48.789101 173.417984,48.694675 187.442947,54.905411 
	C200.077820,60.500568 208.240067,70.355202 211.122742,83.476982 
	C219.488098,121.555717 209.867111,155.218857 184.428680,184.537201 
	C183.461838,185.651505 182.468323,186.742691 181.501740,187.828369 
	C185.351425,195.523758 190.555191,201.727173 196.681595,207.467407 
	C203.090591,213.472458 205.798630,222.081741 209.798325,229.716705 
	C211.434982,232.840836 212.608536,235.009796 216.734543,233.825272 
	C218.809998,233.229446 221.519363,233.107590 222.957550,235.688202 
	C224.481918,238.423431 223.486588,240.718048 221.740555,243.024612 
	C217.144089,249.096634 212.948654,254.996246 204.921600,257.802979 
	C197.686768,260.332703 193.956635,268.202820 187.988770,273.024353 
	C180.659485,278.945831 174.960754,286.773987 166.453995,291.389160 
	C164.133163,292.648315 164.369308,295.352325 164.204391,297.681946 
	C164.020721,300.276520 164.615875,303.583496 161.409927,304.505066 
	C158.393784,305.372101 156.090820,303.339264 154.305450,300.907532 
	C153.247253,299.466217 152.045944,298.130005 150.527649,296.282532 
	C144.888474,302.814301 138.396973,307.933716 135.871887,316.080658 
	C135.238983,318.122650 133.958054,319.079987 131.909271,319.249176 
	C129.918594,319.413605 127.903717,319.944122 125.950546,319.762970 
	C122.128349,319.408508 117.667168,320.283813 115.614098,315.518677 
	C113.031471,309.524414 113.838097,301.431183 117.684799,298.260620 
	C126.349297,291.119171 132.527252,282.191864 137.039673,272.032135 
	C138.054596,269.747009 139.904678,268.402802 141.777588,267.033508 
	C148.443314,262.160187 151.770813,255.652908 151.588440,247.364395 
	C151.375534,237.688354 150.652786,228.113556 147.202225,218.917130 
	C146.059402,215.871307 144.511307,215.076889 141.557602,216.537811 
	C138.021515,218.286774 134.230530,219.271744 129.012589,220.427841 
	C132.229828,216.885361 135.378860,216.262497 138.153534,215.133301 
	C141.085556,213.940048 143.212921,212.740356 142.062683,208.971008 
	C141.333694,206.582092 142.840057,204.175522 142.220932,201.573685 
	C141.059952,196.694763 138.842819,192.754333 134.995605,189.426346 
	C126.933739,182.452499 119.175804,175.128540 111.195282,168.058716 
	C108.405167,165.586990 106.522270,162.725464 106.771591,158.989395 
	C107.038139,154.995117 103.257446,152.695862 103.070541,148.899628 
	C102.740120,142.188263 98.600212,136.855270 96.204987,130.886124 
	C93.179916,123.347328 96.525200,115.187454 104.179581,111.219963 
	C110.650269,107.866005 118.426300,110.132645 122.903328,116.730133 
	C123.837311,118.106483 124.484177,119.794350 126.104912,120.459442 
	C130.575943,122.294205 131.222595,124.810356 127.260857,128.182770 
	C129.024643,129.695480 131.400345,129.384033 132.191010,131.551315 
	C140.152435,125.477165 145.340820,118.679535 142.813568,108.339760 
	C142.545883,107.244560 142.809128,106.019608 143.228851,104.249878 
	C145.351959,102.440140 147.778854,102.584991 149.223953,100.806046 
	C146.217346,97.643250 145.201401,98.166061 142.962814,103.939766 
M200.283844,114.207863 
	C200.117065,113.222862 199.924164,112.241478 199.787354,111.252342 
	C196.075089,84.412796 175.506546,66.462204 148.539948,67.376953 
	C127.530296,68.089630 110.495743,78.233521 95.285202,91.925201 
	C95.056931,92.130676 95.208199,92.757790 95.170929,93.378166 
	C104.713173,91.895081 114.050400,90.482162 123.372879,88.977829 
	C127.658401,88.286285 131.926071,88.622894 135.280731,91.262589 
	C137.673523,93.145416 139.504105,92.798111 142.067444,92.279831 
	C145.948898,91.495018 147.822433,89.017242 148.956619,85.376534 
	C151.407318,86.746895 152.438553,88.289551 152.219543,90.786575 
	C152.045273,92.773750 151.991257,95.202606 153.970657,96.208214 
	C158.177017,98.345207 159.050430,101.045059 156.028641,104.695168 
	C157.515350,106.222008 159.117416,105.600266 160.521820,105.876572 
	C162.615631,106.288528 163.963531,107.509430 163.144623,109.766060 
	C159.257904,120.476616 158.233322,132.261688 151.111008,141.769699 
	C150.125778,143.084946 149.624939,144.752243 148.738007,146.154160 
	C146.843948,149.147980 147.642532,151.283112 150.370544,153.338150 
	C156.409332,157.887238 161.396454,163.385498 165.223679,169.990295 
	C168.139297,175.021881 171.506744,179.791641 174.831696,184.922531 
	C180.131607,178.332840 184.232437,171.858414 187.964081,165.176025 
	C196.644058,149.632401 201.955338,133.198639 200.283844,114.207863 
M129.528732,314.674896 
	C132.295441,313.768463 131.281509,311.828491 130.577362,310.219818 
	C129.344910,307.404144 126.530220,306.961578 123.952301,306.448822 
	C121.888657,306.038300 119.823380,306.266937 119.372429,308.956390 
	C118.945595,311.502045 119.485611,313.809967 122.320473,314.430603 
	C124.394478,314.884705 126.607071,314.705780 129.528732,314.674896 
M219.525208,235.716629 
	C209.617096,234.062958 216.712814,243.860962 212.484741,246.095688 
	C215.095306,244.298859 217.424057,242.269623 219.663986,240.146667 
	C220.906494,238.969055 222.119949,237.646545 219.525208,235.716629 
M159.092697,298.785919 
	C162.123611,297.997955 160.878082,295.848236 160.268021,294.278107 
	C159.845032,293.189484 158.419266,293.643158 157.757294,294.294342 
	C156.014282,296.008881 158.071518,297.109741 159.092697,298.785919 
z"/>
<path fill="#000000" opacity="1.000000" stroke="none" 
	d="
M335.678711,302.458435 
	C336.115479,307.226959 336.445923,311.541077 336.809540,315.852386 
	C337.064545,318.875732 335.607330,320.079102 332.686554,320.053894 
	C323.190674,319.971954 313.694122,319.916809 304.198090,319.941681 
	C300.767822,319.950653 299.630127,318.706390 299.984589,315.083496 
	C303.164734,282.579010 304.777985,250.045059 300.986023,217.461105 
	C300.563385,213.829407 300.440674,210.161270 299.969330,206.537292 
	C299.633240,203.953018 300.532379,202.687744 303.130890,202.746780 
	C322.427063,203.185287 341.796600,201.290268 361.015289,203.711716 
	C386.666473,206.943588 391.019226,229.771866 383.011902,246.570297 
	C374.941498,263.501038 358.427307,271.420654 340.009369,268.043671 
	C334.349487,267.005920 334.055634,267.149750 334.263458,273.076508 
	C334.601715,282.722229 335.135376,292.361053 335.678711,302.458435 
M351.418060,229.254730 
	C349.831787,224.079681 347.077087,219.942184 341.613403,218.208115 
	C336.060425,216.445724 334.211945,217.727264 334.193787,223.490524 
	C334.162354,233.456894 334.191071,243.423447 334.198425,253.389923 
	C334.203217,259.927338 335.988922,260.988007 341.834198,257.835358 
	C344.855255,256.205963 347.016632,253.635025 348.536652,250.649292 
	C351.844849,244.151215 353.750061,237.380356 351.418060,229.254730 
z"/>
<path fill="#000000" opacity="1.000000" stroke="none" 
	d="
M452.741852,302.651428 
	C456.976105,302.096680 460.777100,301.650238 464.553040,301.047363 
	C467.110016,300.639099 468.251526,301.512482 468.330627,304.162750 
	C468.480103,309.172211 467.485748,314.031311 466.923828,318.987183 
	C455.572693,318.987183 444.458099,319.018433 433.343781,318.978973 
	C420.517609,318.933411 407.686035,318.511993 394.873352,319.379974 
	C391.447235,319.612061 389.973358,319.279541 390.321228,314.876404 
	C392.708710,284.654785 394.000610,254.389832 391.855316,224.081757 
	C391.444550,218.278381 391.172272,212.455093 390.461823,206.687088 
	C390.077271,203.564804 391.404419,202.835861 394.012268,202.843552 
	C403.842072,202.872559 413.673462,202.992142 423.501129,202.855087 
	C428.557953,202.784576 427.691376,206.116150 427.247620,208.982193 
	C423.560791,232.792770 423.938019,256.763702 424.360352,280.730621 
	C424.456879,286.208588 425.123840,291.675140 425.474670,297.150391 
	C425.754486,301.518127 427.898132,303.575226 432.398224,303.759186 
	C439.083710,304.032501 445.707947,303.868591 452.741852,302.651428 
z"/>
<path fill="#000000" opacity="1.000000" stroke="none" 
	d="
M268.884583,319.385315 
	C264.902191,319.381500 261.394440,319.210083 257.909210,319.417328 
	C253.987122,319.650604 252.490387,318.240112 253.001770,314.192261 
	C255.424713,295.013519 256.065643,275.734314 256.012848,256.418732 
	C255.970062,240.764603 255.308060,225.160812 253.014114,209.649841 
	C252.091858,203.413635 252.696686,202.823242 259.161041,202.819214 
	C267.988739,202.813705 276.817413,202.933563 285.643646,202.827820 
	C289.437195,202.782379 290.464752,204.324707 290.129211,208.011902 
	C287.335083,238.717133 286.666809,269.464478 288.941406,300.235199 
	C289.333313,305.537231 288.866516,310.889465 290.049438,316.152161 
	C290.700623,319.049438 288.935516,320.075134 286.326904,319.992126 
	C280.673615,319.812225 275.021637,319.589844 268.884583,319.385315 
z"/>
<path fill="#000000" opacity="1.000000" stroke="none" 
	d="
M153.000168,81.446793 
	C161.031479,79.482544 164.167709,86.005753 168.635757,89.775169 
	C170.047592,90.966248 169.317917,93.338516 168.211624,94.858910 
	C166.907181,96.651634 166.192261,98.593590 165.748093,101.095955 
	C163.545731,96.603790 158.315521,96.633888 155.363373,93.549934 
	C156.157562,91.565826 158.023087,93.078789 158.888474,92.090515 
	C160.135727,90.666145 162.621155,89.939941 162.173416,87.507423 
	C161.727570,85.085258 159.553741,84.907349 157.536835,84.566475 
	C155.031158,84.142998 152.273254,84.545273 150.103973,82.808235 
	C150.578491,81.306343 151.599564,81.362579 153.000168,81.446793 
z"/>
<path fill="#000000" opacity="1.000000" stroke="none" 
	d="
M135.413940,84.448753 
	C139.130203,81.717964 143.259186,81.778725 147.522141,82.728218 
	C143.839813,85.204597 139.858444,85.947777 135.413940,84.448753 
z"/>
</svg>